<?xml version="1.0" encoding="utf-8"?>
<!-- Generator: Adobe Illustrator 14.0.0, SVG Export Plug-In . SVG Version: 6.00 Build 43363)  -->
<!DOCTYPE svg PUBLIC "-//W3C//DTD SVG 1.1//EN" "http://www.w3.org/Graphics/SVG/1.1/DTD/svg11.dtd">
<svg version="1.1" id="Layer_1" xmlns="http://www.w3.org/2000/svg" xmlns:xlink="http://www.w3.org/1999/xlink" x="0px" y="0px"
	 width="720px" height="720px" viewBox="0 0 720 720" enable-background="new 0 0 2592 720" xml:space="preserve">
<path fill="#000" d="M171.582,182.353c0,0,0,0,0.036,0h54.447c3.12,0,5.629-2.541,5.635-5.637c0-0.02-0.661-46.685-0.661-59.662	V116.9c0-10.658,2.237-19.95,6.133-27.737l1.862-3.497c-0.208,0.035-0.417,0.137-0.624,0.345L132.618,190.919	c-0.207,0.17-0.336,0.391-0.396,0.618c2.188-1.083,5.18-2.563,5.603-2.749C147.038,184.631,158.209,182.353,171.582,182.353z
	 M595.25,170.93c-4.325-23.152-18.09-34.562-30.535-39.048c-13.427-4.853-40.653-9.88-74.861-13.912
	c-27.521-3.241-59.868-2.983-79.407-2.379c-2.345-16.062-13.611-30.736-26.217-35.816c-33.587-13.519-85.48-10.253-98.804-6.519
	c-10.587,2.959-22.306,9.023-28.828,18.368c-4.374,6.242-7.204,14.239-7.226,25.411c0,6.323,0.176,21.218,0.337,34.452
	c0.16,13.275,0.334,25.148,0.334,25.229c-0.006,11.819-9.585,21.438-21.456,21.453h-54.456c-11.616,0-20.491,1.952-27.271,5.032
	c-6.79,3.083-11.599,7.239-15.253,12.156c-7.273,9.764-8.536,21.813-8.506,34.109c0,0,0.107,10.048,2.528,29.496
	c2.013,15.048,18.332,120.17,33.832,152.141c6.01,12.439,10.013,17.62,21.82,23.103c26.307,11.263,86.396,23.793,114.559,27.381
	c28.112,3.597,45.756,11.158,56.271-10.889c0.035-0.055,2.106-5.485,4.955-13.451c9.129-27.663,10.399-52.208,10.399-69.97
	c0-1.806,2.65-1.889,2.65,0c0,12.54-2.395,56.915,31.126,68.82c13.233,4.693,40.685,8.877,68.578,12.146
	c25.221,2.898,43.524,12.823,43.524,77.529c0,39.367-8.269,44.765-51.495,44.765c-35.04,0-48.395,0.907-48.395-26.931
	c0-22.499,22.252-20.141,38.744-20.141c7.366,0,2.02-5.479,2.02-19.36c0-13.808,8.636-21.79,0.468-21.992
	c-57.028-1.569-90.583-0.065-90.583,71.256c0,64.747,24.778,76.77,105.716,76.77c63.46,0,85.83-2.078,112.033-83.381
	c5.187-16.05,17.726-65.031,25.315-147.271C611.965,367.488,602.644,210.542,595.25,170.93z M484.627,344.405
	c-7.84-0.274-15.381,0.221-22.413,1.351c1.979-15.983,8.576-35.595,31.946-34.774c25.87,0.89,29.495,25.341,29.587,41.903
	C512.839,348.021,499.335,344.922,484.627,344.405z"/>
</svg>
