<?xml version="1.0" encoding="utf-8"?>


<!-- The icon can be used freely in both personal and commercial projects with no attribution required, but always appreciated. 
You may NOT sub-license, resell, rent, redistribute or otherwise transfer the icon without express written permission from iconmonstr.com -->


<!DOCTYPE svg PUBLIC "-//W3C//DTD SVG 1.1//EN" "http://www.w3.org/Graphics/SVG/1.1/DTD/svg11.dtd">

<svg version="1.1" xmlns="http://www.w3.org/2000/svg" xmlns:xlink="http://www.w3.org/1999/xlink" x="0px" y="0px"

	 width="512px" height="512px" viewBox="0 0 512 512" enable-background="new 0 0 512 512" xml:space="preserve">

<path id="tumblr-circle-outline-icon" d="M256.417,90c44.34,0,86.026,17.267,117.38,48.62c31.354,31.354,48.62,73.04,48.62,117.38

	c0,44.34-17.267,86.026-48.62,117.38c-31.354,31.353-73.04,48.62-117.38,48.62s-86.026-17.268-117.38-48.62

	c-31.354-31.354-48.62-73.04-48.62-117.38c0-44.34,17.267-86.026,48.62-117.38C170.391,107.267,212.077,90,256.417,90 M256.417,50

	c-113.771,0-206,92.229-206,206s92.229,206,206,206s206-92.229,206-206S370.188,50,256.417,50L256.417,50z M235.171,147.038

	c-1.414,11.436-3.995,20.847-7.742,28.249c-3.745,7.406-8.714,13.742-14.91,19.023c-6.193,5.278-13.63,9.335-22.318,12.163v31.618

	h24.303v77.772c0,10.135,1.059,17.866,3.187,23.2c2.121,5.337,5.938,10.376,11.441,15.115c5.497,4.739,12.145,8.386,19.941,10.946

	c7.79,2.556,16.752,3.837,26.89,3.837c8.931,0,17.241-0.896,24.925-2.687c7.68-1.796,16.265-4.918,25.746-9.381v-34.899

	c-11.119,7.306-22.296,10.96-33.525,10.96c-6.322,0-11.939-1.47-16.844-4.42c-3.705-2.174-6.242-5.093-7.605-8.746

	c-1.364-3.652-2.042-11.914-2.042-24.778v-56.92h52.698v-34.839h-52.698v-56.214H235.171z"/>

</svg>

