<?xml version="1.0" encoding="utf-8"?>


<!-- The icon can be used freely in both personal and commercial projects with no attribution required, but always appreciated. 
You may NOT sub-license, resell, rent, redistribute or otherwise transfer the icon without express written permission from iconmonstr.com -->


<!DOCTYPE svg PUBLIC "-//W3C//DTD SVG 1.1//EN" "http://www.w3.org/Graphics/SVG/1.1/DTD/svg11.dtd">

<svg version="1.1" xmlns="http://www.w3.org/2000/svg" xmlns:xlink="http://www.w3.org/1999/xlink" x="0px" y="0px"

	 width="512px" height="512px" viewBox="0 0 512 512" enable-background="new 0 0 512 512" xml:space="preserve">

<path id="tumblr-icon" d="M212.844,50c-2.626,21.231-7.415,38.703-14.374,52.444c-6.951,13.749-16.175,25.512-27.678,35.315
	c-11.5,9.8-25.305,17.332-41.435,22.581v58.698h45.115v144.386c0,18.812,1.967,33.167,5.916,43.069
	c3.94,9.909,11.028,19.265,21.242,28.062c10.207,8.798,22.547,15.568,37.022,20.323c14.461,4.743,31.099,7.121,49.919,7.121
	c16.582,0,32.008-1.665,46.272-4.988c14.257-3.335,30.195-9.13,47.798-17.415v-64.791c-20.644,13.564-41.393,20.347-62.24,20.347
	c-11.736,0-22.165-2.729-31.269-8.203c-6.88-4.035-11.59-9.457-14.121-16.239c-2.532-6.781-3.791-22.116-3.791-46.001V219.038
	h97.835V154.36h-97.835V50H212.844z"/>

</svg>

